<svg fill="#000000" xmlns="http://www.w3.org/2000/svg"  viewBox="0 0 100 100" width="100px" height="100px"><path d="M 44.009766 17 C 43.096999 17 42.232088 17.45759 41.726562 18.228516 C 41.403886 18.7212 40.95139 19.373341 40.537109 19.863281 C 40.329969 20.108251 40.127635 20.311002 39.994141 20.419922 C 39.94133 20.463011 39.915137 20.467546 39.898438 20.472656 L 37.841797 20.472656 C 36.543845 20.473523 35.762934 20.068073 35.488281 19.802734 C 34.980202 19.307318 34.294592 19.037109 33.595703 19.037109 L 18.736328 19.037109 A 1.0001 1.0001 0 0 0 18.289062 19.142578 C 17.799228 19.387763 17.197866 19.710711 16.728516 20.326172 C 16.259165 20.941637 16 21.794176 16 22.859375 L 16 34.5 L 16 38.431641 C 16 38.856774 16.100076 39.27595 16.291016 39.65625 L 17.455078 41.986328 C 17.560134 42.196439 17.558754 42.436072 17.455078 42.642578 A 1.0001 1.0001 0 0 0 17.455078 42.644531 L 16.105469 45.34375 A 1.0001 1.0001 0 0 0 16 45.789062 L 16 47.527344 A 1.0001 1.0001 0 0 0 16.292969 48.234375 L 17.736328 49.677734 L 17.736328 50.585938 L 16.802734 51.521484 C 16.289474 52.034745 16 52.729861 16 53.455078 L 16 58.964844 C 16 59.688612 16.287015 60.387837 16.804688 60.902344 L 17.521484 61.619141 C 17.661797 61.759453 17.736328 61.944393 17.736328 62.140625 L 17.736328 67.509766 C 17.736328 67.720264 17.632531 67.941714 17.472656 68.072266 C 16.816101 68.609036 16.355493 69.181661 16.158203 69.84375 C 15.960913 70.505839 16 71.091756 16 71.841797 L 16 78.896484 C 16 80.123097 16.828116 81.188507 17.988281 81.527344 C 20.751193 82.331417 21.489769 82.962891 25.683594 82.962891 L 32.630859 82.962891 C 34.244076 82.962891 35.400848 81.859565 36.033203 81.376953 L 36.033203 81.378906 C 36.240059 81.221624 36.477569 81.199846 36.585938 81.251953 C 36.797826 81.356351 37.294942 81.751581 37.90625 82.148438 C 38.517558 82.545293 39.314553 82.962891 40.296875 82.962891 C 41.373658 82.962891 42.095202 82.382162 42.804688 81.943359 C 43.15943 81.723958 43.491145 81.519399 43.75 81.386719 C 43.977641 81.270038 44.0969 81.251326 44.091797 81.244141 C 44.132585 81.25583 44.199102 81.271824 44.275391 81.310547 C 44.444394 81.396327 44.66503 81.531495 44.873047 81.671875 C 45.289081 81.952636 45.646484 82.240234 45.646484 82.240234 A 1.0001 1.0001 0 0 0 45.828125 82.357422 C 45.886215 82.386292 45.939619 82.427072 45.988281 82.470703 L 46.947266 83.78125 A 1.0001 1.0001 0 0 0 47.046875 83.896484 C 47.560563 84.410172 48.258654 84.699219 48.982422 84.699219 L 51.054688 84.699219 C 51.676049 84.699219 52.304238 84.492942 52.804688 84.064453 A 1.0001 1.0001 0 0 0 52.806641 84.0625 C 53.306154 83.632766 54.303719 82.983034 55.222656 82.962891 L 63.4375 82.962891 C 63.865952 82.962891 64.301794 82.861035 64.695312 82.654297 C 65.085696 82.450121 65.406875 82.190507 65.769531 81.927734 C 66.132187 81.664961 66.510296 81.40883 66.748047 81.292969 C 67.039566 81.150848 67.378009 81.215659 67.599609 81.449219 A 1.0001 1.0001 0 0 0 67.601562 81.449219 C 67.689453 81.541639 67.781805 81.643687 67.873047 81.742188 C 68.026681 81.911089 68.246526 82.167022 68.546875 82.416016 C 68.849836 82.667175 69.269178 82.962891 69.882812 82.962891 L 73.595703 82.962891 C 74.319471 82.962891 75.018696 82.675876 75.533203 82.158203 A 1.0001 1.0001 0 0 0 75.650391 82.013672 L 76.041016 81.4375 C 76.240583 81.251285 76.493587 81.177879 76.75 81.259766 A 1.0001 1.0001 0 0 0 76.751953 81.261719 C 76.765183 81.265919 77.466921 81.60381 78.191406 81.953125 C 78.915892 82.30244 79.771699 82.690116 80.648438 82.892578 C 82.340573 83.283126 84 81.962992 84 80.226562 L 84 57.947266 C 84 56.578698 82.92136 55.542361 81.601562 55.351562 C 81.958941 54.878532 82.263672 54.35126 82.263672 53.753906 L 82.263672 47.935547 C 82.263672 47.511055 82.163031 47.092734 81.972656 46.712891 L 81.972656 46.710938 L 80.980469 44.726562 C 80.836686 44.437703 80.891398 44.102736 81.117188 43.876953 L 81.970703 43.023438 A 1.0001 1.0001 0 0 0 82.263672 42.316406 L 82.263672 40.994141 L 83.199219 40.058594 C 83.713202 39.544657 84 38.846815 84 38.123047 L 84 32.107422 C 84 31.88625 83.973019 31.662679 83.917969 31.443359 L 83.917969 31.441406 L 82.470703 25.658203 C 82.408053 25.40804 82.481883 25.142696 82.664062 24.960938 A 1.0001 1.0001 0 0 0 82.666016 24.960938 L 83.707031 23.917969 A 1.0001 1.0001 0 0 0 84 23.210938 L 84 21.474609 A 1.0001 1.0001 0 0 0 83.707031 20.767578 L 82.376953 19.4375 C 81.961596 19.022143 81.422295 18.74946 80.839844 18.664062 L 80.837891 18.664062 L 75.353516 17.861328 A 1.0001 1.0001 0 0 0 74.626953 18.037109 L 74.082031 18.427734 L 73.921875 18.193359 C 73.412643 17.449029 72.565225 17 71.662109 17 L 62.158203 17 C 61.407651 17 60.685085 17.26055 60.179688 17.769531 C 59.674289 18.278512 59.423828 18.993583 59.423828 19.724609 C 59.423828 19.847964 59.400709 20.078098 59.324219 20.220703 C 59.247729 20.363308 59.264819 20.474609 58.683594 20.474609 C 58.148427 20.474609 58.156462 20.353939 58.058594 20.158203 C 57.960724 19.962467 57.947266 19.736328 57.947266 19.736328 C 57.947266 19.736328 57.957416 19.055037 57.564453 18.371094 C 57.171492 17.68715 56.239252 17 54.951172 17 L 44.009766 17 z M 44.009766 19 L 54.951172 19 C 55.659092 19 55.72404 19.182631 55.830078 19.367188 C 55.936116 19.551744 55.947266 19.736328 55.947266 19.736328 C 55.947266 19.736328 55.933146 20.37997 56.269531 21.052734 C 56.605913 21.725498 57.48176 22.474609 58.683594 22.474609 C 59.839371 22.474609 60.727173 21.83491 61.085938 21.166016 C 61.444701 20.497121 61.423828 19.853255 61.423828 19.724609 C 61.423828 19.420636 61.503558 19.274456 61.597656 19.179688 C 61.691758 19.084917 61.836755 19 62.158203 19 L 71.662109 19 C 71.908993 19 72.130763 19.116596 72.271484 19.322266 L 73.007812 20.398438 A 1.0001 1.0001 0 0 0 74.416016 20.648438 L 75.462891 19.898438 L 80.548828 20.642578 C 80.705698 20.665468 80.850669 20.739338 80.962891 20.851562 L 82 21.888672 L 82 22.796875 L 81.251953 23.544922 C 80.572134 24.223163 80.297897 25.212695 80.53125 26.144531 L 81.978516 31.927734 A 1.0001 1.0001 0 0 0 81.978516 31.929688 C 81.993138 31.987713 82 32.045234 82 32.107422 L 82 38.123047 C 82 38.319279 81.92317 38.506515 81.785156 38.644531 L 80.556641 39.871094 A 1.0001 1.0001 0 0 0 80.263672 40.578125 L 80.263672 41.902344 L 79.703125 42.460938 C 78.872908 43.291154 78.669189 44.570001 79.191406 45.619141 L 80.183594 47.607422 A 1.0001 1.0001 0 0 0 80.185547 47.609375 C 80.236607 47.711075 80.263672 47.822681 80.263672 47.935547 L 80.263672 53.753906 C 80.263672 53.950138 80.187182 54.135078 80.046875 54.275391 L 78.818359 55.501953 A 1.0001 1.0001 0 0 0 79.525391 57.210938 L 81.263672 57.210938 C 81.681779 57.21089 82 57.529107 82 57.947266 L 82 80.226562 C 82 80.72345 81.582733 81.055259 81.099609 80.943359 A 1.0001 1.0001 0 0 0 81.097656 80.943359 C 80.506394 80.806821 79.735108 80.478529 79.058594 80.152344 C 78.382716 79.826466 77.909481 79.530333 77.359375 79.355469 L 77.357422 79.355469 C 76.383495 79.045247 75.316847 79.314009 74.601562 80.029297 A 1.0001 1.0001 0 0 0 74.480469 80.175781 L 74.083984 80.759766 C 73.950773 80.882121 73.780887 80.962891 73.595703 80.962891 L 69.882812 80.962891 C 70.011448 80.962891 69.955509 80.985793 69.824219 80.876953 C 69.692929 80.768112 69.519925 80.579891 69.345703 80.388672 A 1.0001 1.0001 0 0 0 69.339844 80.382812 C 69.255374 80.291623 69.156489 80.183451 69.050781 80.072266 C 68.234382 79.211822 66.941575 78.974215 65.871094 79.496094 C 65.398845 79.726232 64.9775 80.033367 64.597656 80.308594 C 64.217812 80.583821 63.855194 80.836989 63.767578 80.882812 A 1.0001 1.0001 0 0 0 63.765625 80.884766 C 63.665595 80.937416 63.564421 80.962891 63.4375 80.962891 L 55.210938 80.962891 A 1.0001 1.0001 0 0 0 55.191406 80.962891 C 53.471996 80.995451 52.175355 81.967543 51.501953 82.546875 C 51.390539 82.641495 51.23836 82.699219 51.054688 82.699219 L 48.982422 82.699219 C 48.793499 82.699219 48.61867 82.620679 48.480469 82.490234 L 47.533203 81.195312 A 1.0001 1.0001 0 0 0 47.433594 81.080078 C 47.262179 80.908509 47.063832 80.768561 46.853516 80.648438 C 46.813072 80.615828 46.466009 80.333431 45.992188 80.013672 C 45.741954 79.844802 45.467621 79.673497 45.179688 79.527344 C 44.891753 79.381191 44.631007 79.224609 44.138672 79.224609 C 43.596575 79.224609 43.214442 79.414414 42.837891 79.607422 C 42.461339 79.800429 42.101288 80.027339 41.753906 80.242188 C 41.059142 80.671885 40.335092 80.962891 40.296875 80.962891 C 39.893197 80.962891 39.467286 80.776597 38.996094 80.470703 C 38.524902 80.164809 38.080814 79.757633 37.470703 79.457031 A 1.0001 1.0001 0 0 0 37.466797 79.455078 C 36.540642 79.001853 35.532716 79.244967 34.822266 79.785156 A 1.0001 1.0001 0 0 0 34.820312 79.787109 C 34.126669 80.316497 33.149642 80.962891 32.630859 80.962891 L 25.683594 80.962891 C 21.674543 80.962891 21.487547 80.462909 18.548828 79.607422 C 18.223034 79.512259 18 79.219871 18 78.896484 L 18 71.841797 C 18 71.066838 18.009499 70.631225 18.074219 70.414062 C 18.138929 70.196901 18.232837 70.034323 18.738281 69.621094 C 19.374406 69.101645 19.736328 68.327268 19.736328 67.509766 L 19.736328 62.140625 C 19.736328 61.416857 19.449235 60.718766 18.935547 60.205078 L 18.216797 59.486328 A 1.0001 1.0001 0 0 0 18.214844 59.484375 C 18.078563 59.348929 18 59.161076 18 58.964844 L 18 53.455078 C 18 53.260296 18.07806 53.074286 18.216797 52.935547 L 19.443359 51.707031 A 1.0001 1.0001 0 0 0 19.736328 51 L 19.736328 49.263672 A 1.0001 1.0001 0 0 0 19.443359 48.556641 L 18 47.113281 L 18 46.025391 L 19.242188 43.541016 C 19.628511 42.771522 19.629038 41.861686 19.244141 41.091797 L 18.078125 38.761719 A 1.0001 1.0001 0 0 0 18.078125 38.759766 C 18.027017 38.658113 18 38.544507 18 38.431641 L 18 34.5 L 18 22.859375 C 18 22.092574 18.150413 21.761852 18.320312 21.539062 C 18.460691 21.354985 18.72645 21.204001 19.035156 21.037109 L 33.595703 21.037109 C 33.796814 21.037109 33.959829 21.103789 34.09375 21.234375 A 1.0001 1.0001 0 0 0 34.095703 21.236328 C 34.882134 21.999018 36.147654 22.473788 37.841797 22.472656 L 40.0625 22.472656 C 40.660179 22.472656 40.969385 22.207627 41.259766 21.970703 C 41.550146 21.733779 41.80764 21.455702 42.0625 21.154297 C 42.57222 20.551487 43.053068 19.854534 43.400391 19.324219 C 43.53496 19.120036 43.755169 19 44.009766 19 z M 28.507812 27.421875 C 28.025966 27.421875 27.662322 27.543926 27.212891 27.691406 C 26.763459 27.838887 26.276735 28.030288 25.800781 28.228516 L 25.800781 28.226562 C 24.073407 28.943586 23.576531 31.233616 24.841797 32.607422 L 62.642578 73.693359 C 63.16071 74.258882 63.891786 74.578125 64.65625 74.578125 L 69.695312 74.578125 C 70.780721 74.578125 71.779844 73.929153 72.207031 72.921875 L 72.207031 72.925781 C 73.15523 70.708315 75.368537 65.527232 76.414062 63.097656 C 76.920277 61.923238 76.530831 60.533869 75.486328 59.794922 C 72.00071 57.32839 61.132942 49.640396 51.015625 42.470703 C 45.956967 38.885857 41.085419 35.429862 37.417969 32.822266 C 35.584244 31.518467 34.053133 30.426453 32.949219 29.636719 C 31.845304 28.846984 31.071794 28.279698 31.085938 28.291016 C 30.147037 27.541099 29.187487 27.421875 28.507812 27.421875 z M 63.865234 27.667969 C 63.412194 27.685759 62.96298 27.814931 62.5625 28.056641 L 57.130859 31.314453 C 55.41281 32.343124 55.390674 34.921148 57.085938 35.982422 L 66.369141 41.785156 C 67.993296 42.799285 70.202104 41.803457 70.517578 39.914062 L 70.517578 39.912109 L 71.617188 33.324219 A 1.0001 1.0001 0 0 0 71.617188 33.322266 C 71.813064 32.143864 71.213325 30.961202 70.140625 30.425781 L 70.138672 30.423828 L 65.195312 27.953125 A 1.0001 1.0001 0 0 0 65.193359 27.951172 C 64.775848 27.744128 64.318275 27.650183 63.865234 27.667969 z M 28.890625 29.419922 C 29.206514 29.425553 29.371794 29.48306 29.835938 29.853516 C 30.09533 30.061083 30.67825 30.471797 31.785156 31.263672 C 32.892062 32.055547 34.425209 33.148736 36.259766 34.453125 C 39.928878 37.061903 44.800283 40.51641 49.859375 44.101562 C 59.977558 51.27187 70.844696 58.961318 74.330078 61.427734 C 74.625575 61.636788 74.719957 61.973059 74.576172 62.306641 C 73.527698 64.743065 71.314988 69.922138 70.367188 72.138672 A 1.0001 1.0001 0 0 0 70.367188 72.140625 C 70.252374 72.411347 69.999905 72.578125 69.695312 72.578125 L 64.65625 72.578125 C 64.448714 72.578125 64.255054 72.492275 64.117188 72.341797 A 1.0001 1.0001 0 0 0 64.115234 72.339844 L 26.3125 31.251953 C 25.945766 30.853759 26.069734 30.281195 26.568359 30.074219 A 1.0001 1.0001 0 0 0 26.570312 30.074219 C 27.01636 29.888447 27.467572 29.713316 27.837891 29.591797 C 28.208209 29.470277 28.54666 29.421875 28.507812 29.421875 C 28.663187 29.421875 28.785329 29.418045 28.890625 29.419922 z M 63.943359 29.666016 C 64.064527 29.661141 64.186599 29.685918 64.300781 29.742188 L 64.302734 29.742188 L 69.246094 32.214844 A 1.0001 1.0001 0 0 0 69.248047 32.214844 C 69.539714 32.360037 69.696542 32.669492 69.642578 32.994141 L 69.644531 32.994141 L 68.544922 39.583984 A 1.0001 1.0001 0 0 0 68.544922 39.585938 C 68.453252 40.137327 67.901044 40.383427 67.427734 40.087891 L 58.146484 34.285156 C 57.645476 33.970059 57.648834 33.336231 58.158203 33.03125 L 63.59375 29.771484 A 1.0001 1.0001 0 0 0 63.595703 29.769531 C 63.70193 29.705418 63.822192 29.67089 63.943359 29.666016 z M 29.910156 56.703125 C 29.687383 56.686852 29.46222 56.696741 29.242188 56.732422 C 28.362054 56.875144 27.549787 57.427299 27.162109 58.330078 A 1.0001 1.0001 0 0 0 27.160156 58.330078 L 23.566406 66.71875 C 23.070939 67.874317 23.434341 69.232102 24.439453 69.986328 L 29.71875 73.947266 C 30.296837 74.380831 31.026964 74.570936 31.748047 74.466797 L 39.992188 73.289062 C 42.098002 72.989548 43.064865 70.351275 41.650391 68.761719 L 41.652344 68.761719 L 31.722656 57.589844 C 31.232796 57.038606 30.578475 56.751943 29.910156 56.703125 z M 29.554688 58.65625 C 29.785055 58.61872 30.03371 58.70291 30.226562 58.919922 A 1.0001 1.0001 0 0 0 30.228516 58.919922 L 40.15625 70.089844 C 40.583775 70.570288 40.347122 71.218108 39.710938 71.308594 A 1.0001 1.0001 0 0 0 39.708984 71.308594 L 31.464844 72.486328 A 1.0001 1.0001 0 0 0 31.462891 72.486328 C 31.269974 72.514188 31.077835 72.466088 30.919922 72.347656 L 25.638672 68.386719 C 25.361784 68.178945 25.267764 67.826245 25.404297 67.507812 L 28.998047 59.119141 L 29 59.117188 C 29.114617 58.852795 29.325196 58.693636 29.554688 58.65625 z"/></svg>